<svg width="28" height="24" viewBox="0 0 28 24" fill="none" xmlns="http://www.w3.org/2000/svg">
<path d="M26.5 7.625H23.4188L18.7938 0.68125C18.6098 0.405425 18.3237 0.213989 17.9986 0.149054C17.6734 0.0841196 17.3358 0.151006 17.06 0.335C16.7842 0.518994 16.5927 0.805024 16.5278 1.13016C16.4629 1.45531 16.5298 1.79292 16.7137 2.06875L20.415 7.625H7.585L11.29 2.06875C11.474 1.79292 11.5409 1.45531 11.4759 1.13016C11.411 0.805024 11.2196 0.518994 10.9438 0.335C10.6679 0.151006 10.3303 0.0841196 10.0052 0.149054C9.68002 0.213989 9.39399 0.405425 9.21 0.68125L4.58125 7.625H1.5C1.16848 7.625 0.850537 7.7567 0.616116 7.99112C0.381696 8.22554 0.25 8.54348 0.25 8.875C0.25 9.20652 0.381696 9.52446 0.616116 9.75888C0.850537 9.9933 1.16848 10.125 1.5 10.125H2.75V20.125C2.75 21.1196 3.14509 22.0734 3.84835 22.7767C4.55161 23.4799 5.50544 23.875 6.5 23.875H21.5C22.4946 23.875 23.4484 23.4799 24.1517 22.7767C24.8549 22.0734 25.25 21.1196 25.25 20.125V10.125H26.5C26.8315 10.125 27.1495 9.9933 27.3839 9.75888C27.6183 9.52446 27.75 9.20652 27.75 8.875C27.75 8.54348 27.6183 8.22554 27.3839 7.99112C27.1495 7.7567 26.8315 7.625 26.5 7.625ZM22.75 20.125C22.75 20.4565 22.6183 20.7745 22.3839 21.0089C22.1495 21.2433 21.8315 21.375 21.5 21.375H6.5C6.16848 21.375 5.85054 21.2433 5.61612 21.0089C5.3817 20.7745 5.25 20.4565 5.25 20.125V10.125H22.75V20.125ZM7.75 18.25V13.25C7.75 12.9185 7.8817 12.6005 8.11612 12.3661C8.35054 12.1317 8.66848 12 9 12C9.33152 12 9.64946 12.1317 9.88388 12.3661C10.1183 12.6005 10.25 12.9185 10.25 13.25V18.25C10.25 18.5815 10.1183 18.8995 9.88388 19.1339C9.64946 19.3683 9.33152 19.5 9 19.5C8.66848 19.5 8.35054 19.3683 8.11612 19.1339C7.8817 18.8995 7.75 18.5815 7.75 18.25ZM12.75 18.25V13.25C12.75 12.9185 12.8817 12.6005 13.1161 12.3661C13.3505 12.1317 13.6685 12 14 12C14.3315 12 14.6495 12.1317 14.8839 12.3661C15.1183 12.6005 15.25 12.9185 15.25 13.25V18.25C15.25 18.5815 15.1183 18.8995 14.8839 19.1339C14.6495 19.3683 14.3315 19.5 14 19.5C13.6685 19.5 13.3505 19.3683 13.1161 19.1339C12.8817 18.8995 12.75 18.5815 12.75 18.25ZM17.75 18.25V13.25C17.75 12.9185 17.8817 12.6005 18.1161 12.3661C18.3505 12.1317 18.6685 12 19 12C19.3315 12 19.6495 12.1317 19.8839 12.3661C20.1183 12.6005 20.25 12.9185 20.25 13.25V18.25C20.25 18.5815 20.1183 18.8995 19.8839 19.1339C19.6495 19.3683 19.3315 19.5 19 19.5C18.6685 19.5 18.3505 19.3683 18.1161 19.1339C17.8817 18.8995 17.75 18.5815 17.75 18.25Z" fill="#211F54"/>
</svg>
